<?xml version="1.0" encoding="iso-8859-1"?>
<!-- Uploaded to: SVG Repo, www.svgrepo.com, Generator: SVG Repo Mixer Tools -->
<svg height="800px" width="800px" version="1.1" id="Layer_1" xmlns="http://www.w3.org/2000/svg" xmlns:xlink="http://www.w3.org/1999/xlink" 
	 viewBox="0 0 511.998 511.998" xml:space="preserve">
<g>
	<path style="fill:#6EAECD;" d="M195.823,124.599c-18.686-11.223-39.746-16.414-63.131-16.414
		C64.007,108.186,8.325,163.866,8.325,232.553S64.007,356.92,132.692,356.92c17.49,0,32.88-3.584,47.979-10.1"/>
	<path style="fill:#6EAECD;" d="M316.178,124.599c18.685-11.223,39.746-16.414,63.131-16.414
		c68.686,0,124.367,55.681,124.367,124.367s-55.681,124.367-124.367,124.367c-17.49,0-32.049-3.229-47.148-9.745"/>
</g>
<g>
	<circle style="fill:#5388B4;" cx="313.734" cy="235.428" r="98.95"/>
	<circle style="fill:#5388B4;" cx="195.824" cy="235.428" r="98.95"/>
</g>
<path style="fill:#9DCEE0;" d="M366.872,274.009c5.875-14.441,9.024-30.281,8.805-46.882
	c-0.856-64.727-53.603-117.556-118.329-118.506c-67.18-0.986-121.95,53.177-121.95,120.132c0,16.014,3.133,31.296,8.819,45.266
	l87.711,189.887c3.236,7.004,10.248,11.49,17.963,11.49h8.921c7.643,0,14.602-4.401,17.877-11.306L366.872,274.009z"/>
<g>
	<path style="fill:#E6E6E6;" d="M179.032,349.39l-16.354,25.612c-5.965,9.338-6.96,21.011-2.661,31.224l0,0
		c1.059,2.515,4.253,3.286,6.342,1.53l28.548-23.997L179.032,349.39z"/>
	<path style="fill:#E6E6E6;" d="M330.804,348.952l16.354,25.612c5.965,9.338,6.96,21.011,2.661,31.224l0,0
		c-1.059,2.515-4.253,3.286-6.342,1.53l-28.548-23.997L330.804,348.952z"/>
</g>
<path style="fill:#6EAECD;" d="M375.677,227.127c-0.314-23.773-7.636-45.936-19.972-64.518c0.002,0,0.004,0,0.007-0.001
	c-8.51-12.807-19.45-23.947-32.083-32.71c-12.318-8.544-26.315-14.815-40.932-18.172c-8.275-1.9-16.843-3.106-25.348-3.106
	c-10.679-0.142-21.385,1.093-31.732,3.753c0.001,0.001,0.004,0.002,0.006,0.002c-29.288,7.512-54.264,25.78-70.458,50.354
	c12.557,1.239,24.943,4.277,36.595,9.128c10.958,4.562,21.269,10.729,30.331,18.406c4.375,3.706,8.455,7.763,12.158,12.14
	c3.399,4.018,7.505,7.195,12.487,9.005c9.602,3.488,20.637,1.396,28.247-5.433c2.069-1.856,3.681-4.059,5.426-6.206
	c1.968-2.421,4.048-4.751,6.236-6.974c0.047-0.048,0.094-0.095,0.143-0.144c9.689-9.686,26.014-6.735,31.979,5.599
	c5.255,10.865,9.2,22.351,11.649,34.212c4.107,19.894,3.991,40.52,0.117,60.44c-1.521,7.821-3.61,15.531-6.219,23.059
	l-65.502,159.432c7.643,0,14.602-4.401,17.877-11.306l90.182-190.077C372.749,259.568,375.897,243.728,375.677,227.127
	C375.363,203.353,375.897,243.728,375.677,227.127z"/>
<path style="fill:#634E9B;" d="M257.348,108.62c-38.202-0.561-72.384,16.716-94.771,44.032c0.051,0,0.1-0.002,0.151-0.002
	c31.246,0,58.893,13.167,75.754,33.363c9.495,11.372,26.902,11.079,35.911-0.682c13.22-17.257,35.684-32.681,73.751-32.681
	c0.068,0,0.131,0.003,0.199,0.003C326.618,126.236,293.894,109.158,257.348,108.62z"/>
<path style="fill:#FFDB6C;" d="M257.348,108.62c-14.957-0.22-29.296,2.301-42.555,7.081c16.092,1.86,29.621,10.612,36.301,22.707
	c2.137,3.867,7.808,3.783,9.863-0.129c5.191-9.879,15.324-20.674,34.942-22.658C283.808,111.278,270.839,108.819,257.348,108.62z"/>
<path style="fill:#F44A46;" d="M279.905,85.542c0,12.738-10.327,23.065-23.065,23.065c-12.738,0-23.065-10.327-23.065-23.065
	c0-9.839,13.76-33.678,20.024-44.019c1.383-2.283,4.698-2.283,6.082,0C266.145,51.866,279.905,75.704,279.905,85.542z"/>
<path style="fill:#BA2C53;" d="M266.948,53.696c-1.944-3.506-7.299-1.61-6.616,2.34c2.04,11.795,4.217,25.354,4.217,29.506
	c0,10.043-6.429,18.561-15.388,21.728c2.405,0.85,4.982,1.337,7.678,1.337c12.738,0,23.065-10.327,23.065-23.065
	C279.905,78.648,273.147,64.879,266.948,53.696z"/>
<circle cx="202.163" cy="263.046" r="8.325"/>
<circle cx="309.282" cy="263.046" r="8.325"/>
<path d="M255.437,316.29c4.599,0,8.325-3.728,8.325-8.325v-38.253c0-4.598-3.726-8.325-8.325-8.325s-8.325,3.728-8.325,8.325v38.253
	C247.112,312.562,250.839,316.29,255.437,316.29z"/>
<path d="M273.44,366.934h-36.005c-4.599,0-8.325,3.728-8.325,8.325c0,4.598,3.726,8.325,8.325,8.325h36.005
	c4.599,0,8.325-3.728,8.325-8.325C281.765,370.661,278.039,366.934,273.44,366.934z"/>
<path d="M265.563,398.437h-20.252c-4.599,0-8.325,3.728-8.325,8.325s3.726,8.325,8.325,8.325h20.252
	c4.599,0,8.325-3.728,8.325-8.325S270.162,398.437,265.563,398.437z"/>
<path d="M282.44,336.556h-54.005c-4.599,0-8.325,3.728-8.325,8.325s3.726,8.325,8.325,8.325h54.005c4.599,0,8.325-3.728,8.325-8.325
	S287.039,336.556,282.44,336.556z"/>
<circle cx="202.163" cy="263.046" r="8.325"/>
<circle cx="309.282" cy="263.046" r="8.325"/>
<path d="M255.437,316.29c4.599,0,8.325-3.728,8.325-8.325v-38.253c0-4.598-3.726-8.325-8.325-8.325s-8.325,3.728-8.325,8.325v38.253
	C247.112,312.562,250.839,316.29,255.437,316.29z"/>
<path d="M273.44,366.934h-36.005c-4.599,0-8.325,3.728-8.325,8.325c0,4.598,3.726,8.325,8.325,8.325h36.005
	c4.599,0,8.325-3.728,8.325-8.325C281.765,370.661,278.039,366.934,273.44,366.934z"/>
<path d="M265.563,398.437h-20.252c-4.599,0-8.325,3.728-8.325,8.325s3.726,8.325,8.325,8.325h20.252
	c4.599,0,8.325-3.728,8.325-8.325S270.162,398.437,265.563,398.437z"/>
<path d="M282.44,336.556h-54.005c-4.599,0-8.325,3.728-8.325,8.325s3.726,8.325,8.325,8.325h54.005c4.599,0,8.325-3.728,8.325-8.325
	S287.039,336.556,282.44,336.556z"/>
<path d="M379.308,99.861c-23.664,0-45.044,5.187-63.626,15.423c-10.353-5.528-21.407-9.595-32.901-12.088
	c3.436-5.033,5.449-11.112,5.449-17.653c0-4.324-1.3-12.47-12.538-33.214c-5.84-10.777-11.589-19.822-11.831-20.202
	c-1.529-2.4-4.177-3.852-7.021-3.852c-2.844,0-5.493,1.453-7.021,3.852c-0.242,0.38-5.991,9.423-11.831,20.202
	c-11.238,20.744-12.538,28.89-12.538,33.214c0,6.328,1.888,12.222,5.123,17.157c-12.127,2.378-23.894,6.523-34.83,12.28
	c-18.45-10.029-39.63-15.119-63.051-15.119C59.525,99.861,0,159.386,0,232.553s59.525,132.692,132.692,132.692
	c4.599,0,8.325-3.728,8.325-8.325s-3.726-8.325-8.325-8.325c-63.984,0-116.041-52.056-116.041-116.041
	s52.057-116.041,116.041-116.041c17.258,0,32.582,2.932,46.477,8.9c-7.498,5.566-14.401,11.964-20.543,18.999
	c-31.329,0.882-49.414,12.155-64.053,21.289c-8.261,5.155-14.786,9.227-21.79,10.239c-4.551,0.658-7.706,4.88-7.049,9.431
	c0.599,4.146,4.158,7.135,8.229,7.135c0.396,0,0.798-0.028,1.202-0.087c10.467-1.513,19.091-6.895,28.222-12.591
	c11.099-6.924,23.363-14.573,42.152-17.545c-12.04,19.834-18.467,42.64-18.467,66.473c0,16.741,3.174,33.026,9.434,48.405
	c0.048,0.119,0.099,0.236,0.153,0.352l32.905,71.238l-13.903,21.774c-7.44,11.646-8.68,26.202-3.317,38.937
	c0.932,2.215,1.674,4.813,3.118,6.751c2.826,3.793,8.378,4.539,12.045,1.457l24.412-20.52l32.449,70.252
	c4.581,9.916,14.598,16.323,25.521,16.323h8.92c10.801,0,20.77-6.305,25.399-16.062l34.799-73.346l24.86,20.897
	c3.671,3.084,9.216,2.334,12.045-1.457c1.45-1.944,2.183-4.532,3.118-6.751c5.363-12.735,4.123-27.291-3.316-38.935l-13.914-21.791
	c0,0,32.723-68.981,32.782-69.126c6.477-15.921,9.645-32.788,9.417-50.13c-0.305-23.13-6.782-45.352-18.613-64.754
	c18.784,2.973,31.046,10.62,42.143,17.544c9.131,5.697,17.755,11.078,28.223,12.591c0.404,0.059,0.806,0.087,1.202,0.087
	c4.069,0,7.629-2.988,8.229-7.135c0.658-4.551-2.498-8.773-7.049-9.431c-7.004-1.012-13.529-5.084-21.791-10.239
	c-14.645-9.138-32.738-20.416-64.094-21.29c-6.036-6.897-12.797-13.175-20.136-18.664c14.082-6.179,29.635-9.216,47.193-9.216
	c63.986,0,116.041,52.056,116.041,116.041S443.29,348.597,379.306,348.597c-4.599,0-8.325,3.728-8.325,8.325
	s3.726,8.325,8.325,8.325c73.167,0,132.692-59.525,132.692-132.692S452.475,99.861,379.308,99.861z M345.357,394.707l-18.662-15.687
	l6.825-14.777l8.163,12.784C345.072,382.33,346.33,388.631,345.357,394.707z M256.854,52.653
	c9.248,15.993,14.727,28.872,14.727,32.89c0,8.128-6.613,14.739-14.739,14.739c-8.127,0-14.739-6.613-14.739-14.739
	C242.101,80.605,248.91,66.434,256.854,52.653z M267.638,117.595c-5.121,3.893-8.921,8.42-11.723,12.804
	c-3.402-4.933-7.735-9.236-12.763-12.76C251.286,116.744,259.5,116.713,267.638,117.595
	C262.518,121.487,267.57,117.587,267.638,117.595z M215.683,124.236c12.259,1.934,22.926,8.787,28.123,18.197
	c2.442,4.424,7.095,7.155,12.169,7.154c0.048,0,0.098,0,0.147,0c5.147-0.053,9.824-2.902,12.205-7.435
	c5.388-10.257,14.317-16.303,26.545-18.012c12.918,4.89,24.885,12.175,35.162,21.403c-26.202,3.654-47.501,15.475-62.248,34.726
	c-2.73,3.563-6.839,5.66-11.275,5.753c-4.457,0.098-8.721-1.853-11.637-5.345c-15.455-18.512-38.649-30.957-64.22-34.959
	c0.098-0.088,0.193-0.178,0.29-0.265c1.01-0.908-0.098,0.088,0,0C191.094,136.333,202.931,129.091,215.683,124.236z
	 M166.021,397.164c-0.974-6.075,0.285-12.377,3.674-17.68l8.163-12.783l6.825,14.777L166.021,397.164z M344.392,161.056
	c14.576,19.011,22.642,42.03,22.961,66.18c0.199,15.027-2.529,29.635-8.104,43.42L324.64,343.6
	c-0.001,0.001-0.001,0.002-0.002,0.003l-12.662,26.688l-42.809,90.228c-1.886,3.977-5.951,6.548-10.355,6.548h-8.92
	c-4.454,0-8.537-2.613-10.406-6.656l-87.627-189.709c-5.397-13.324-8.134-27.438-8.134-41.953c0-24.81,8.008-48.338,22.8-67.695
	c26.125,0.991,50.421,12.151,65.568,30.293c6.032,7.223,14.783,11.328,24.099,11.327c0.222,0,0.445-0.002,0.668-0.007
	c9.522-0.2,18.321-4.673,24.145-12.275C295.315,171.712,316.641,161.869,344.392,161.056z"/>
</svg>